<svg width="752" height="668" viewBox="0 0 752 668" fill="none" xmlns="http://www.w3.org/2000/svg">
<path d="M372.059 56C215.133 56 88 183.133 88 340.059V444.949H655.914V340.059C656.118 183.133 528.986 56 372.059 56Z" fill="#E9F0F5"/>
<path d="M351.23 193.21H343.25V203.5H332.19V193.21H305.8V185.58L328.9 154.5H340.8L319.38 183.97H332.54V174.8H343.25V183.97H351.23V193.21ZM375.622 204.34C371.562 204.34 367.945 203.337 364.772 201.33C361.598 199.323 359.102 196.43 357.282 192.65C355.508 188.823 354.622 184.273 354.622 179C354.622 173.727 355.508 169.2 357.282 165.42C359.102 161.593 361.598 158.677 364.772 156.67C367.945 154.663 371.562 153.66 375.622 153.66C379.682 153.66 383.298 154.663 386.472 156.67C389.645 158.677 392.118 161.593 393.892 165.42C395.712 169.2 396.622 173.727 396.622 179C396.622 184.273 395.712 188.823 393.892 192.65C392.118 196.43 389.645 199.323 386.472 201.33C383.298 203.337 379.682 204.34 375.622 204.34ZM375.622 194.75C378.608 194.75 380.942 193.467 382.622 190.9C384.348 188.333 385.212 184.367 385.212 179C385.212 173.633 384.348 169.667 382.622 167.1C380.942 164.533 378.608 163.25 375.622 163.25C372.682 163.25 370.348 164.533 368.622 167.1C366.942 169.667 366.102 173.633 366.102 179C366.102 184.367 366.942 188.333 368.622 190.9C370.348 193.467 372.682 194.75 375.622 194.75ZM447.001 193.21H439.021V203.5H427.961V193.21H401.571V185.58L424.671 154.5H436.571L415.151 183.97H428.311V174.8H439.021V183.97H447.001V193.21Z" fill="#013451"/>
<path d="M392.622 450.984H57.5463C55.7097 450.984 54.2812 449.555 54.2812 447.719C54.2812 445.882 55.7097 444.454 57.5463 444.454H392.622C394.459 444.454 395.887 445.882 395.887 447.719C395.887 449.555 394.459 450.984 392.622 450.984Z" fill="#013451"/>
<path d="M433.64 450.984H415.478C413.641 450.984 412.213 449.555 412.213 447.719C412.213 445.882 413.641 444.454 415.478 444.454H433.64C435.476 444.454 436.905 445.882 436.905 447.719C436.905 449.555 435.476 450.984 433.64 450.984Z" fill="#013451"/>
<path d="M579.75 450.984H446.087C444.251 450.984 442.822 449.555 442.822 447.719C442.822 445.882 444.251 444.454 446.087 444.454H579.75C581.587 444.454 583.015 445.882 583.015 447.719C583.015 449.555 581.587 450.984 579.75 450.984Z" fill="#013451"/>
<path d="M681.373 450.984H590.972C589.136 450.984 587.707 449.555 587.707 447.719C587.707 445.882 589.136 444.454 590.972 444.454H681.373C683.21 444.454 684.638 445.882 684.638 447.719C684.842 449.555 683.21 450.984 681.373 450.984Z" fill="#013451"/>
<path d="M73.4646 653.215C72.6484 653.215 72.0362 653.011 71.2199 652.399C69.7914 651.174 69.5874 649.134 70.8118 647.705L242.839 445.476C244.063 444.048 246.104 443.844 247.533 445.068C248.961 446.293 249.165 448.333 247.941 449.762L75.9134 651.991C75.3012 652.807 74.485 653.215 73.4646 653.215Z" fill="#013451"/>
<path d="M670.764 653.214C669.744 653.214 668.928 652.806 668.316 651.99L496.288 449.761C495.064 448.333 495.268 446.292 496.696 445.068C498.125 443.843 500.166 444.047 501.39 445.476L673.417 647.705C674.642 649.133 674.438 651.174 673.009 652.398C672.193 653.01 671.581 653.214 670.764 653.214Z" fill="#013451"/>
<path d="M320.795 315.281H292.43V447.719H320.795V315.281Z" fill="white"/>
<path d="M450.982 315.281H422.617V447.719H450.982V315.281Z" fill="white"/>
<path d="M297.436 444.455V444.955H297.936H317.118H317.618V444.455V299.977V299.477H317.118H297.936H297.436V299.977V444.455ZM323.353 450.485H291.906V293.947H323.353V450.485Z" fill="#374953" stroke="#013451"/>
<path d="M426.609 444.455V444.955H427.109H446.291H446.791V444.455V299.976V299.476H446.291H427.109H426.609V299.976V444.455ZM452.321 450.485H420.875V293.946H452.321V450.485Z" fill="#374953" stroke="#013451"/>
<path d="M277.008 333.144V286.597H467.421V333.144H277.008Z" fill="white" stroke="#013451"/>
<path d="M379.562 286.098H344.055L296.508 333.645H332.015L379.562 286.098Z" fill="white" stroke="#013451" stroke-width="3" stroke-miterlimit="10"/>
<path d="M308.546 286.097H276.508V318.34L308.546 286.097Z" fill="white" stroke="#013451" stroke-width="3" stroke-miterlimit="10"/>
<path d="M450.576 286.098H415.069L367.521 333.645H403.029L450.576 286.098Z" fill="white" stroke="#013451" stroke-width="3" stroke-miterlimit="10"/>
<path d="M467.921 304.465L438.535 333.647H467.921V304.465Z" fill="white" stroke="#013451" stroke-width="3" stroke-miterlimit="10"/>
<path d="M279.272 330.38V330.88H279.772H464.656H465.156V330.38V289.567V289.067H464.656H279.772H279.272V289.567V330.38ZM467.921 336.41H276.507C274.947 336.41 273.742 335.206 273.742 333.645V286.098C273.742 284.538 274.947 283.333 276.507 283.333H467.921C469.481 283.333 470.686 284.538 470.686 286.098V333.645C470.686 335.206 469.481 336.41 467.921 336.41Z" fill="#374953" stroke="#013451"/>
<path d="M277.008 403.142V356.595H467.421V403.142H277.008Z" fill="white" stroke="#013451"/>
<path d="M379.562 356.095H344.055L296.508 403.438H332.015L379.562 356.095Z" fill="white" stroke="#013451" stroke-width="3" stroke-miterlimit="10"/>
<path d="M308.546 356.095H276.508V388.133L308.546 356.095Z" fill="white" stroke="#013451" stroke-width="3" stroke-miterlimit="10"/>
<path d="M450.576 356.095H415.069L367.521 403.438H403.029L450.576 356.095Z" fill="white" stroke="#013451" stroke-width="3" stroke-miterlimit="10"/>
<path d="M467.923 374.258L438.537 403.439H467.923V374.258Z" fill="white" stroke="#013451" stroke-width="3" stroke-miterlimit="10"/>
<path d="M279.272 400.173V400.673H279.772H464.656H465.156V400.173V359.36V358.86H464.656H279.772H279.272V359.36V400.173ZM467.921 406.203H276.507C274.947 406.203 273.742 404.999 273.742 403.438V355.891C273.742 354.331 274.947 353.126 276.507 353.126H467.921C469.481 353.126 470.686 354.331 470.686 355.891V403.438C470.686 404.999 469.481 406.203 467.921 406.203Z" fill="#374953" stroke="#013451"/>
<path d="M317.957 337.573L317.959 337.569L366.728 253.294C366.729 253.294 366.729 253.293 366.73 253.292C369.189 249.133 375.242 249.133 377.702 253.292C377.702 253.293 377.703 253.294 377.703 253.294L426.473 337.569L426.475 337.573C428.928 341.724 425.912 347.022 420.987 347.022H323.648C318.506 347.022 315.511 341.713 317.957 337.573Z" fill="white" stroke="#013451"/>
<path d="M363.873 251.455L363.873 251.455L363.876 251.449C365.622 248.346 368.717 246.603 372.215 246.603C375.712 246.603 378.808 248.346 380.554 251.449L380.557 251.455L429.326 335.728C429.326 335.729 429.327 335.73 429.327 335.731C431.075 338.84 431.076 342.322 429.331 345.431C427.378 348.55 424.272 350.288 420.783 350.288H323.443C319.946 350.288 316.85 348.545 315.104 345.441C313.354 342.329 313.353 338.843 315.103 335.731C315.103 335.73 315.104 335.729 315.104 335.728L363.873 251.455ZM368.73 254.408L368.725 254.415L368.721 254.423L319.954 338.695C318.833 340.496 319.655 342.099 319.903 342.583C319.91 342.595 319.916 342.607 319.921 342.617C320.213 343.424 321.408 344.758 323.443 344.758H420.783C422.887 344.758 423.835 343.335 424.253 342.708L424.26 342.699L424.297 342.643L424.318 342.58C424.34 342.514 424.376 342.429 424.42 342.328C424.701 341.675 425.284 340.321 424.272 338.695L375.512 254.436C374.575 252.577 372.922 252.337 372.215 252.337C371.495 252.337 369.871 252.582 368.73 254.408Z" fill="#374953" stroke="#013451"/>
<path d="M366.448 331.864L366.436 331.852L366.424 331.841C364.932 330.536 364.35 328.858 364.35 326.504C364.35 324.182 365.117 322.474 366.448 321.143C367.743 319.848 369.628 319.249 372.42 319.249C375.003 319.249 376.89 319.845 378.189 321.143C379.497 322.452 380.083 324.145 380.083 326.504C380.083 328.825 379.316 330.533 377.985 331.864C376.686 333.162 374.798 333.758 372.216 333.758C369.634 333.758 367.746 333.162 366.448 331.864ZM378.274 311.923H366.159L364.553 283.22C364.553 283.219 364.553 283.218 364.553 283.217C364.363 278.806 367.812 275.171 372.216 275.171C376.621 275.171 380.07 278.806 379.88 283.217C379.879 283.218 379.879 283.219 379.879 283.22L378.274 311.923Z" fill="#374953" stroke="#013451"/>
<path d="M56.9337 405.273C58.1581 405.273 59.3825 405.477 60.6069 405.681C64.076 390.376 77.7484 379.153 94.0737 379.153C108.154 379.153 120.194 387.52 125.5 399.559C127.744 398.947 129.989 398.539 132.438 398.539C145.906 398.539 156.926 409.559 156.926 423.027C156.926 436.495 145.906 447.515 132.438 447.515H56.9337C45.302 447.515 35.7109 438.128 35.7109 426.292C35.7109 414.864 45.0979 405.273 56.9337 405.273Z" fill="white"/>
<path d="M132.437 450.984H56.9332C43.4649 450.984 32.4453 439.965 32.4453 426.496C32.4453 413.028 43.4649 402.009 56.9332 402.009C57.3413 402.009 57.7495 402.009 58.1576 402.009C63.0552 386.296 77.3397 375.684 94.0731 375.684C107.95 375.684 120.806 383.439 127.336 395.683C128.968 395.274 130.805 395.274 132.642 395.274C147.946 395.274 160.598 407.722 160.598 423.231C160.19 438.536 147.742 450.984 132.437 450.984ZM56.9332 408.743C47.138 408.743 39.1795 416.701 39.1795 426.496C39.1795 436.292 47.138 444.25 56.9332 444.25H132.437C144.069 444.25 153.66 434.659 153.66 423.027C153.66 411.396 144.069 401.804 132.437 401.804C130.397 401.804 128.356 402.009 126.315 402.621C124.683 403.029 123.05 402.213 122.234 400.784C117.337 389.561 106.113 382.214 93.8691 382.214C79.3804 382.214 66.9324 392.009 63.6673 406.294C63.2592 407.926 61.6267 409.151 59.7901 408.743C58.7698 408.743 57.7494 408.743 56.9332 408.743Z" fill="#013451"/>
<path d="M202.636 297.937C202.636 283.856 195.493 271.612 184.474 264.47C188.351 258.144 190.8 250.797 190.8 242.839C190.8 226.309 180.801 212.025 166.516 205.903C168.965 200.597 170.393 194.679 170.393 188.557C170.393 166.314 152.436 148.356 130.192 148.356C107.949 148.356 89.9915 166.314 89.9915 188.557C89.9915 193.659 91.0118 198.557 92.6443 203.046C73.2581 205.903 58.3613 222.636 58.3613 242.839C58.3613 253.45 62.4426 263.245 69.3809 270.388C62.6467 277.53 58.3613 287.325 58.3613 297.937C58.3613 318.955 74.4825 336.097 94.8891 337.933C101.827 350.177 114.887 358.544 129.988 358.544C145.089 358.544 158.149 350.177 165.088 337.933C186.31 336.505 202.636 319.159 202.636 297.937Z" fill="white"/>
<path d="M130.397 361.807C115.296 361.807 101.216 353.849 93.257 340.993C71.626 338.136 55.3008 319.974 55.3008 297.935C55.3008 287.732 58.7699 278.141 65.0959 270.386C58.7699 262.632 55.3008 253.04 55.3008 242.837C55.3008 222.839 69.3813 205.289 88.5635 200.596C87.3391 196.718 86.9309 192.637 86.9309 188.556C86.9309 164.476 106.521 145.09 130.397 145.09C154.273 145.09 173.863 164.68 173.863 188.556C173.863 194.066 172.843 199.371 171.006 204.269C185.291 211.819 194.269 226.512 194.269 242.837C194.269 249.98 192.433 257.122 189.168 263.448C199.779 271.61 206.105 284.263 206.105 297.935C206.105 319.974 189.372 338.748 167.537 341.197C159.578 353.849 145.498 361.807 130.397 361.807ZM130.397 151.62C109.99 151.62 93.461 168.149 93.461 188.556C93.461 193.045 94.2773 197.535 95.9098 201.82C96.318 202.84 96.1139 203.861 95.7057 204.677C95.2976 205.493 94.2773 206.105 93.257 206.31C75.2992 208.962 61.8309 224.675 61.8309 242.837C61.8309 252.224 65.3 261.203 71.8301 268.141C73.0545 269.366 73.0545 271.406 71.8301 272.631C65.3 279.569 61.8309 288.548 61.8309 297.935C61.8309 317.117 76.3195 333.034 95.2976 334.667C96.318 334.667 97.3383 335.483 97.9505 336.299C104.481 347.931 116.725 355.277 130.193 355.277C143.457 355.277 155.905 348.135 162.435 336.503C163.047 335.483 164.068 334.871 165.088 334.871C184.27 333.442 199.167 317.321 199.167 298.139C199.167 285.691 193.045 274.263 182.638 267.325C181.209 266.305 180.597 264.264 181.617 262.836C185.291 256.918 187.331 250.184 187.331 243.041C187.331 228.349 178.556 215.084 165.088 209.166C164.272 208.758 163.66 208.146 163.251 207.33C162.843 206.514 163.047 205.493 163.455 204.677C165.904 199.779 167.129 194.27 167.129 188.76C167.333 168.149 150.803 151.62 130.397 151.62Z" fill="#013451"/>
<path d="M130.806 409.355C128.969 409.355 127.541 407.926 127.541 406.09V196.31C127.541 194.474 128.969 193.045 130.806 193.045C132.643 193.045 134.071 194.474 134.071 196.31V405.886C134.071 407.926 132.643 409.355 130.806 409.355Z" fill="#013451"/>
<path d="M130.804 250.185C129.987 250.185 129.171 249.777 128.559 249.164L105.703 226.309C104.479 225.085 104.479 222.84 105.703 221.616C106.928 220.391 109.173 220.391 110.397 221.616L133.252 244.471C134.477 245.695 134.477 247.94 133.252 249.164C132.436 249.981 131.62 250.185 130.804 250.185Z" fill="#013451"/>
<path d="M130.806 289.977C129.989 289.977 129.173 289.569 128.561 288.957C127.336 287.732 127.336 285.488 128.561 284.263L160.191 252.633C161.415 251.409 163.66 251.409 164.885 252.633C166.109 253.858 166.109 256.102 164.885 257.327L133.05 288.957C132.438 289.773 131.622 289.977 130.806 289.977Z" fill="#013451"/>
<path d="M130.807 335.687C129.991 335.687 129.175 335.279 128.563 334.667L87.9535 294.058C86.7291 292.833 86.7291 290.588 87.9535 289.364C89.1778 288.14 91.4226 288.14 92.6469 289.364L133.256 329.973C134.48 331.198 134.48 333.442 133.256 334.667C132.44 335.279 131.623 335.687 130.807 335.687Z" fill="#013451"/>
<path d="M209.983 399.561C208.554 399.561 207.126 399.765 205.902 399.969C202.024 382.624 186.515 369.768 167.945 369.768C152.028 369.768 138.356 379.359 132.234 393.031C129.785 392.215 126.928 391.807 124.275 391.807C108.766 391.807 96.3184 404.255 96.3184 419.764C96.3184 435.273 108.766 447.721 124.275 447.721H209.983C223.247 447.721 234.063 436.905 234.063 423.641C234.063 410.377 223.247 399.561 209.983 399.561Z" fill="white"/>
<path d="M209.984 450.984H124.277C107.135 450.984 93.0547 436.903 93.0547 419.762C93.0547 402.62 107.135 388.54 124.277 388.54C126.317 388.54 128.358 388.744 130.399 389.152C137.745 375.275 152.03 366.5 167.947 366.5C186.721 366.5 203.046 378.744 208.352 396.294C208.964 396.294 209.372 396.294 209.984 396.294C225.085 396.294 237.329 408.538 237.329 423.639C237.329 438.74 225.085 450.984 209.984 450.984ZM124.277 395.274C110.808 395.274 99.7888 406.293 99.7888 419.762C99.7888 433.23 110.808 444.249 124.277 444.249H209.984C221.412 444.249 230.799 434.862 230.799 423.435C230.799 412.007 221.412 402.62 209.984 402.62C208.964 402.62 207.74 402.824 206.515 403.028C204.679 403.232 203.046 402.212 202.638 400.579C198.965 384.254 184.68 373.031 167.947 373.031C153.866 373.031 141.01 381.397 135.296 394.253C134.684 395.682 132.847 396.498 131.215 396.09C128.97 395.478 126.521 395.274 124.277 395.274Z" fill="#013451"/>
<path d="M687.295 405.273C686.07 405.273 684.846 405.477 683.622 405.681C680.153 390.376 666.48 379.153 650.155 379.153C636.074 379.153 624.035 387.52 618.729 399.559C616.484 398.947 614.239 398.539 611.791 398.539C598.322 398.539 587.303 409.559 587.303 423.027C587.303 436.495 598.322 447.515 611.791 447.515H687.295C698.927 447.515 708.518 438.128 708.518 426.292C708.518 414.864 699.131 405.273 687.295 405.273Z" fill="white"/>
<path d="M687.293 450.985H611.789C596.484 450.985 583.832 438.537 583.832 423.028C583.832 407.723 596.28 395.071 611.789 395.071C613.626 395.071 615.258 395.275 617.095 395.479C623.625 383.235 636.277 375.48 650.357 375.48C667.091 375.48 681.375 386.092 686.273 401.805C686.681 401.805 687.089 401.805 687.497 401.805C700.966 401.805 711.985 412.824 711.985 426.293C711.781 439.965 700.966 450.985 687.293 450.985ZM611.993 401.805C600.361 401.805 590.77 411.396 590.77 423.028C590.77 434.659 600.361 444.251 611.993 444.251H687.497C697.293 444.251 705.251 436.292 705.251 426.497C705.251 416.702 697.293 408.743 687.497 408.743C686.477 408.743 685.457 408.743 684.436 408.947C682.804 409.151 680.967 408.131 680.559 406.498C677.294 392.418 664.846 382.419 650.357 382.419C638.113 382.419 626.89 389.765 621.992 400.989C621.38 402.417 619.544 403.233 617.911 402.825C616.074 402.213 614.034 401.805 611.993 401.805Z" fill="#013451"/>
<path d="M695.866 242.839C695.866 222.636 680.969 205.903 661.583 203.046C663.42 198.557 664.236 193.659 664.236 188.557C664.236 166.314 646.278 148.356 624.035 148.356C601.792 148.356 583.834 166.314 583.834 188.557C583.834 194.883 585.263 200.597 587.711 205.903C573.427 212.025 563.428 226.309 563.428 242.839C563.428 250.797 565.672 258.144 569.754 264.47C558.938 271.612 551.592 284.06 551.592 297.937C551.592 319.159 567.917 336.505 588.732 337.933C595.67 350.177 608.73 358.544 623.831 358.544C638.932 358.544 651.992 350.177 658.93 337.933C679.337 336.097 695.458 318.955 695.458 297.937C695.458 287.325 691.377 277.53 684.438 270.388C691.785 263.245 695.866 253.45 695.866 242.839Z" fill="white"/>
<path d="M624.24 361.808C609.139 361.808 595.058 353.849 587.1 340.993C565.265 338.544 548.531 319.77 548.531 297.731C548.531 284.059 554.857 271.407 565.469 263.244C562 256.918 560.367 249.776 560.367 242.634C560.367 226.308 569.346 211.616 583.63 204.065C581.59 198.964 580.774 193.658 580.774 188.352C580.774 164.272 600.364 144.886 624.24 144.886C648.319 144.886 667.706 164.477 667.706 188.352C667.706 192.434 667.093 196.515 666.073 200.392C685.255 205.086 699.336 222.635 699.336 242.634C699.336 252.837 695.867 262.428 689.541 270.183C695.867 277.937 699.336 287.528 699.336 297.731C699.336 319.77 683.214 338.136 661.379 340.789C653.421 353.849 639.34 361.808 624.24 361.808ZM624.24 151.62C603.833 151.62 587.304 168.15 587.304 188.556C587.304 194.066 588.528 199.576 590.977 204.473C591.385 205.29 591.385 206.31 591.181 207.126C590.773 207.942 590.161 208.555 589.344 208.963C575.876 214.881 567.101 228.145 567.101 242.838C567.101 249.776 569.142 256.714 572.815 262.632C573.835 264.061 573.427 266.101 571.795 267.122C561.387 274.06 555.265 285.487 555.265 297.935C555.265 317.118 570.162 333.239 589.344 334.667C590.365 334.667 591.385 335.279 591.997 336.3C598.527 347.931 610.771 355.074 624.24 355.074C637.504 355.074 649.952 347.727 656.482 336.096C657.094 335.075 657.91 334.463 659.135 334.463C678.317 332.831 692.602 316.914 692.602 297.731C692.602 288.344 689.132 279.365 682.602 272.427C681.378 271.203 681.378 269.162 682.602 267.938C689.132 261 692.602 252.021 692.602 242.634C692.602 224.472 679.133 208.759 661.175 206.106C660.155 205.902 659.339 205.29 658.727 204.473C658.319 203.657 658.114 202.637 658.523 201.616C660.155 197.331 660.971 192.842 660.971 188.352C661.175 168.15 644.646 151.62 624.24 151.62Z" fill="#013451"/>
<path d="M623.828 409.355C621.991 409.355 620.562 407.926 620.562 406.09V196.31C620.562 194.474 621.991 193.045 623.828 193.045C625.664 193.045 627.093 194.474 627.093 196.31V405.886C627.093 407.926 625.664 409.355 623.828 409.355Z" fill="#013451"/>
<path d="M623.827 250.186C623.011 250.186 622.195 249.778 621.582 249.166C620.358 247.941 620.358 245.697 621.582 244.472L644.438 221.617C645.662 220.393 647.907 220.393 649.131 221.617C650.356 222.841 650.356 225.086 649.131 226.311L626.276 249.166C625.46 249.982 624.643 250.186 623.827 250.186Z" fill="#013451"/>
<path d="M623.828 289.976C623.012 289.976 622.196 289.568 621.584 288.955L589.953 257.325C588.729 256.101 588.729 253.856 589.953 252.632C591.178 251.407 593.423 251.407 594.647 252.632L626.277 284.262C627.502 285.486 627.502 287.731 626.277 288.955C625.461 289.772 624.645 289.976 623.828 289.976Z" fill="#013451"/>
<path d="M623.827 335.687C623.011 335.687 622.195 335.279 621.582 334.667C620.358 333.442 620.358 331.198 621.582 329.973L662.191 289.364C663.416 288.14 665.661 288.14 666.885 289.364C668.109 290.588 668.109 292.833 666.885 294.058L626.276 334.667C625.46 335.279 624.643 335.687 623.827 335.687Z" fill="#013451"/>
<path d="M547.304 399.561C548.733 399.561 550.161 399.765 551.386 399.969C555.263 382.624 570.772 369.768 589.342 369.768C605.259 369.768 618.931 379.359 625.053 393.031C627.502 392.215 630.359 391.807 633.012 391.807C648.521 391.807 660.969 404.255 660.969 419.764C660.969 435.273 648.521 447.721 633.012 447.721H547.304C534.04 447.721 523.225 436.905 523.225 423.641C523.225 410.377 534.04 399.561 547.304 399.561Z" fill="white"/>
<path d="M633.011 450.984H547.304C532.203 450.984 519.959 438.74 519.959 423.639C519.959 408.538 532.203 396.294 547.304 396.294C547.916 396.294 548.324 396.294 548.936 396.294C554.242 378.54 570.567 366.5 589.341 366.5C605.054 366.5 619.543 375.275 626.889 389.152C628.93 388.744 630.971 388.54 633.011 388.54C650.153 388.54 664.233 402.62 664.233 419.762C664.233 436.903 650.357 450.984 633.011 450.984ZM547.304 403.028C535.876 403.028 526.489 412.415 526.489 423.843C526.489 435.271 535.876 444.658 547.304 444.658H633.011C646.48 444.658 657.499 433.638 657.499 420.17C657.499 406.701 646.48 395.682 633.011 395.682C630.563 395.682 628.318 396.09 626.073 396.702C624.441 397.11 622.808 396.294 621.992 394.866C616.278 382.009 603.422 373.643 589.341 373.643C572.608 373.643 558.323 385.07 554.65 401.192C554.242 402.824 552.609 404.049 550.773 403.64C549.753 403.028 548.528 403.028 547.304 403.028Z" fill="#013451"/>
<path d="M175.495 84.6872H120.601C118.765 84.6872 117.336 83.2587 117.336 81.4221C117.336 79.5856 118.765 78.1571 120.601 78.1571H175.495C186.923 78.1571 196.31 68.7701 196.31 57.3424C196.31 45.9147 186.923 36.5277 175.495 36.5277C174.475 36.5277 173.25 36.7318 172.026 36.9359C170.189 37.1399 168.557 36.1196 168.149 34.4871C164.475 18.1618 150.191 6.93822 133.457 6.93822C119.377 6.93822 106.521 15.3049 100.807 28.161C100.195 29.7936 98.3582 30.4058 96.7256 29.9976C94.4809 29.3854 92.0321 28.9773 89.5833 28.9773C76.115 28.9773 65.0955 39.9968 65.0955 53.4652C65.0955 66.9335 76.115 77.953 89.5833 77.953C91.4199 77.953 92.8484 79.3815 92.8484 81.2181C92.8484 83.0547 91.4199 84.4831 89.5833 84.4831C72.4418 84.4831 58.3613 70.4026 58.3613 53.2611C58.3613 36.1196 72.4418 22.0391 89.5833 22.0391C91.624 22.0391 93.6647 22.2431 95.7053 22.6513C103.052 8.77482 117.336 0 133.253 0C152.027 0 168.353 12.2439 173.658 29.7936C174.271 29.7936 174.679 29.7936 175.291 29.7936C190.392 29.7936 202.636 42.0375 202.636 57.1383C202.84 72.4433 190.596 84.6872 175.495 84.6872Z" fill="#013451"/>
<path d="M107.952 84.6866H105.095C103.259 84.6866 101.83 83.2581 101.83 81.4215C101.83 79.5849 103.259 78.1565 105.095 78.1565H107.952C109.789 78.1565 111.217 79.5849 111.217 81.4215C111.217 83.2581 109.789 84.6866 107.952 84.6866Z" fill="#013451"/>
<path d="M673.822 131.213H609.949C598.318 131.213 588.727 121.622 588.727 109.991C588.727 98.3589 598.318 88.7678 609.949 88.7678C610.153 88.7678 610.358 88.7678 610.562 88.7678C614.847 75.5035 627.091 66.5247 641.171 66.5247C653.007 66.5247 663.823 73.0547 669.537 83.258C673.414 82.6458 677.495 82.8499 681.168 84.0743C683.005 84.6865 683.821 86.5231 683.209 88.1556C682.597 89.9922 680.76 90.8085 678.924 90.1963C675.659 89.1759 671.985 88.9719 668.516 89.9922C666.884 90.4003 665.251 89.5841 664.435 88.1556C660.354 78.7686 651.171 72.8507 640.967 72.8507C628.927 72.8507 618.724 81.0133 615.867 92.8491C615.459 94.4816 613.827 95.706 611.99 95.2979C611.174 95.0938 610.358 95.0938 609.541 95.0938C601.583 95.0938 595.053 101.624 595.053 109.582C595.053 117.541 601.583 124.071 609.541 124.071H673.822C683.413 124.071 691.372 116.317 691.372 106.522C691.372 104.889 691.167 103.256 690.759 101.624C690.351 99.7873 691.372 97.9507 693.004 97.5426C694.841 97.1345 696.677 98.1548 697.085 99.7873C697.698 102.032 698.106 104.277 698.106 106.522C697.902 120.398 687.086 131.213 673.822 131.213Z" fill="#013451"/>
<path d="M688.921 95.9102C688.104 95.9102 687.288 95.5021 686.676 94.8899L685.451 93.6655C684.227 92.4411 684.227 90.1964 685.451 88.972C686.676 87.7476 688.921 87.7476 690.145 88.972L691.369 90.1964C692.594 91.4208 692.594 93.6655 691.369 94.8899C690.553 95.5021 689.737 95.9102 688.921 95.9102Z" fill="#013451"/>
<path d="M459.147 95.9116C459.147 100.401 455.474 104.278 450.781 104.278C446.291 104.278 442.414 100.605 442.414 95.9116C442.414 91.2181 446.087 87.5449 450.781 87.5449C455.474 87.5449 459.147 91.4222 459.147 95.9116Z" fill="white"/>
<path d="M513.835 288.548C513.835 290.589 512.202 292.221 510.161 292.221C508.121 292.221 506.488 290.589 506.488 288.548C506.488 286.508 508.121 284.875 510.161 284.875C512.202 284.875 513.835 286.508 513.835 288.548Z" fill="#013451"/>
<path d="M251.408 282.834C251.408 286.711 248.347 289.976 244.265 289.976C240.388 289.976 237.123 286.915 237.123 282.834C237.123 278.956 240.184 275.691 244.265 275.691C248.143 275.895 251.408 278.956 251.408 282.834Z" fill="white"/>
<path d="M694.026 158.762C694.026 161.619 691.781 163.864 688.924 163.864C686.067 163.864 683.822 161.619 683.822 158.762C683.822 155.906 686.067 153.661 688.924 153.661C691.781 153.457 694.026 155.906 694.026 158.762Z" fill="#E9F0F5"/>
<path d="M286.506 29.9978C286.506 32.8547 284.261 35.0995 281.404 35.0995C278.547 35.0995 276.303 32.8547 276.303 29.9978C276.303 27.1409 278.547 24.8962 281.404 24.8962C284.261 24.6921 286.506 27.1409 286.506 29.9978Z" fill="#E9F0F5"/>
<path d="M93.0529 127.95C93.0529 130.807 90.8082 133.052 87.9512 133.052C85.0943 133.052 82.8496 130.807 82.8496 127.95C82.8496 125.093 85.0943 122.848 87.9512 122.848C90.6041 122.848 93.0529 125.093 93.0529 127.95Z" fill="#E9F0F5"/>
<path d="M442.823 251.409C445.753 251.409 448.129 249.034 448.129 246.104C448.129 243.173 445.753 240.798 442.823 240.798C439.893 240.798 437.518 243.173 437.518 246.104C437.518 249.034 439.893 251.409 442.823 251.409Z" fill="white"/>
<path d="M363.849 127.948C365.878 127.948 367.522 126.304 367.522 124.275C367.522 122.246 365.878 120.602 363.849 120.602C361.82 120.602 360.176 122.246 360.176 124.275C360.176 126.304 361.82 127.948 363.849 127.948Z" fill="#013451"/>
<path d="M202.636 195.494C204.665 195.494 206.309 193.85 206.309 191.821C206.309 189.792 204.665 188.148 202.636 188.148C200.607 188.148 198.963 189.792 198.963 191.821C198.963 193.85 200.607 195.494 202.636 195.494Z" fill="#013451"/>
<path d="M313.238 257.327C315.266 257.327 316.911 255.683 316.911 253.654C316.911 251.626 315.266 249.981 313.238 249.981C311.209 249.981 309.564 251.626 309.564 253.654C309.564 255.683 311.209 257.327 313.238 257.327Z" fill="#013451"/>
<path d="M741.778 387.927C741.778 389.968 740.145 391.6 738.105 391.6C736.064 391.6 734.432 389.968 734.432 387.927C734.432 385.886 736.064 384.254 738.105 384.254C740.145 384.254 741.778 385.886 741.778 387.927Z" fill="#E9F0F5"/>
<path d="M751.9 289.976C751.9 294.058 748.635 297.119 744.758 297.119C740.676 297.119 737.615 293.854 737.615 289.976C737.615 285.895 740.88 282.834 744.758 282.834C748.635 282.834 751.9 286.099 751.9 289.976Z" fill="#E9F0F5"/>
<path d="M555.669 66.5252C555.669 68.5659 554.036 70.1984 551.995 70.1984C549.955 70.1984 548.322 68.5659 548.322 66.5252C548.322 64.4846 549.955 62.8521 551.995 62.8521C554.036 62.8521 555.669 64.4846 555.669 66.5252Z" fill="#E9F0F5"/>
<path d="M13.0602 260.184C13.0602 263.857 10.2033 266.714 6.53009 266.714C2.85691 266.714 0 263.857 0 260.184C0 256.511 2.85691 253.654 6.53009 253.654C10.2033 253.654 13.0602 256.715 13.0602 260.184Z" fill="#E9F0F5"/>
<path d="M57.3425 347.524C57.3425 349.565 55.7099 351.197 53.6693 351.197C51.6286 351.197 49.9961 349.565 49.9961 347.524C49.9961 345.484 51.6286 343.851 53.6693 343.851C55.5059 343.851 57.3425 345.484 57.3425 347.524Z" fill="#E9F0F5"/>
<path d="M231.817 356.094C231.817 358.135 230.185 359.767 228.144 359.767C226.103 359.767 224.471 358.135 224.471 356.094C224.471 354.054 226.103 352.421 228.144 352.421C230.185 352.217 231.817 353.849 231.817 356.094Z" fill="white"/>
<path d="M32.854 173.862H27.3442V168.353C27.3442 166.72 26.1198 165.496 24.4873 165.496C22.8548 165.496 21.6304 166.72 21.6304 168.353V173.862H16.1206C14.4881 173.862 13.2637 175.087 13.2637 176.719C13.2637 178.352 14.4881 179.576 16.1206 179.576H21.6304V185.086C21.6304 186.718 22.8548 187.943 24.4873 187.943C26.1198 187.943 27.3442 186.718 27.3442 185.086V179.576H32.854C34.4865 179.576 35.7109 178.352 35.7109 176.719C35.7109 175.087 34.4865 173.862 32.854 173.862Z" fill="#013451"/>
<path d="M528.528 355.687H523.018V350.177C523.018 348.544 521.794 347.32 520.161 347.32C518.529 347.32 517.304 348.544 517.304 350.177V355.687H511.794C510.162 355.687 508.938 356.911 508.938 358.543C508.938 360.176 510.162 361.4 511.794 361.4H517.304V366.91C517.304 368.543 518.529 369.767 520.161 369.767C521.794 369.767 523.018 368.543 523.018 366.91V361.4H528.528C530.16 361.4 531.385 360.176 531.385 358.543C531.385 356.911 529.956 355.687 528.528 355.687Z" fill="white"/>
<path d="M281.61 112.644H276.1V107.134C276.1 105.501 274.876 104.277 273.243 104.277C271.611 104.277 270.386 105.501 270.386 107.134V112.644H264.876C263.244 112.644 262.02 113.868 262.02 115.5C262.02 117.133 263.244 118.357 264.876 118.357H270.386V123.867C270.386 125.5 271.611 126.724 273.243 126.724C274.876 126.724 276.1 125.5 276.1 123.867V118.357H281.61C283.242 118.357 284.467 117.133 284.467 115.5C284.467 113.868 283.038 112.644 281.61 112.644Z" fill="white"/>
<path d="M741.692 201.413H736.182V195.903C736.182 194.27 734.958 193.046 733.325 193.046C731.693 193.046 730.468 194.27 730.468 195.903V201.413H724.958C723.326 201.413 722.102 202.637 722.102 204.27C722.102 205.902 723.326 207.126 724.958 207.126H730.468V212.636C730.468 214.269 731.693 215.493 733.325 215.493C734.958 215.493 736.182 214.269 736.182 212.636V207.126H741.692C743.324 207.126 744.549 205.902 744.549 204.27C744.549 202.841 743.324 201.413 741.692 201.413Z" fill="#013451"/>
<path d="M451.186 15.7131H445.676V10.2033C445.676 8.57082 444.452 7.34644 442.819 7.34644C441.187 7.34644 439.962 8.57082 439.962 10.2033V15.7131H434.453C432.82 15.7131 431.596 16.9375 431.596 18.57C431.596 20.2026 432.82 21.4269 434.453 21.4269H439.962V27.1408C439.962 28.7733 441.187 29.9977 442.819 29.9977C444.452 29.9977 445.676 28.7733 445.676 27.1408V21.631H451.186C452.819 21.631 454.043 20.4066 454.043 18.7741C454.043 17.1416 452.819 15.7131 451.186 15.7131Z" fill="#013451"/>
</svg>
